<?xml version="1.0" encoding="UTF-8" standalone="no"?>
<svg
   xmlns:dc="http://purl.org/dc/elements/1.1/"
   xmlns:cc="http://creativecommons.org/ns#"
   xmlns:rdf="http://www.w3.org/1999/02/22-rdf-syntax-ns#"
   xmlns:svg="http://www.w3.org/2000/svg"
   xmlns="http://www.w3.org/2000/svg"
   xmlns:sodipodi="http://sodipodi.sourceforge.net/DTD/sodipodi-0.dtd"
   xmlns:inkscape="http://www.inkscape.org/namespaces/inkscape"
   width="200mm"
   height="30mm"
   viewBox="0 0 200 30"
   version="1.1"
   id="svg214"
   inkscape:version="1.0.2-2 (e86c870879, 2021-01-15)"
   sodipodi:docname="logo2.svg">
  <defs
     id="defs208" />
  <sodipodi:namedview
     id="base"
     pagecolor="#ffffff"
     bordercolor="#666666"
     borderopacity="1.0"
     inkscape:pageopacity="0.0"
     inkscape:pageshadow="2"
     inkscape:zoom="1.4"
     inkscape:cx="426.96437"
     inkscape:cy="175.34696"
     inkscape:document-units="mm"
     inkscape:current-layer="layer1"
     inkscape:document-rotation="0"
     showgrid="false"
     inkscape:window-width="2458"
     inkscape:window-height="1198"
     inkscape:window-x="777"
     inkscape:window-y="92"
     inkscape:window-maximized="0" />
  <metadata
     id="metadata211">
    <rdf:RDF>
      <cc:Work
         rdf:about="">
        <dc:format>image/svg+xml</dc:format>
        <dc:type
           rdf:resource="http://purl.org/dc/dcmitype/StillImage" />
        <dc:title></dc:title>
      </cc:Work>
    </rdf:RDF>
  </metadata>
  <g
     inkscape:label="Calque 1"
     inkscape:groupmode="layer"
     id="layer1">
    <path
       fill="#1b3441"
       d="m 73.711103,24.274282 c -1.497807,-0.0976 -3.000375,-1.012024 -4.28625,-1.897841 q -0.504828,-0.350047 -0.819153,-0.854874 -0.081,-0.13097 0.0072,-0.25717 0.947736,-1.347781 2.08836,-2.507445 a 0.06905625,0.066675 41.2 0 1 0.09286,-0.004 q 1.140624,0.966784 2.474127,1.547801 2.193129,0.952494 3.540915,-0.485767 c 1.126332,-1.202534 -0.692946,-2.057388 -1.585908,-2.333618 Q 73.244433,16.867014 71.394195,15.959767 C 70.117851,15.33588 69.003426,13.957139 69.08439,12.461728 69.12246,11.790211 69.00816,11.066327 69.212973,10.43053 69.944016,8.1659732 71.963319,6.5776931 74.380287,6.7158031 q 0.8001,0.0453 1.681164,0.003 0.692946,-0.031 1.504953,0.2643067 1.688301,0.6143667 2.897973,1.6049601 a 0.2238375,0.22145625 41.1 0 1 0.02385,0.32147 q -1.014408,1.1263231 -1.812123,2.3693241 a 0.31194374,0.31194374 0 0 1 -0.409581,0.10716 c -1.621629,-0.866764 -3.645693,-2.1502574 -5.093496,-0.18573 -0.716751,0.971544 0.823914,1.933551 1.578771,2.200258 q 1.221579,0.433387 2.557467,0.954864 1.481139,0.576267 2.300283,1.397794 1.369224,1.366831 1.407321,3.281352 0.01908,0.990584 -0.492921,2.074048 c -0.392904,0.831054 -1.159668,1.490661 -1.819269,2.105008 q -0.569124,0.526257 -1.447803,0.735814 c -0.535779,0.12858 -1.054899,0.32146 -1.609722,0.3429 q -1.023948,0.0428 -1.935963,-0.0166 z"
       id="path72"
       style="stroke-width:0.238125" />
    <path
       fill="#1b3441"
       d="m 184.68924,23.433705 c -1.98358,-0.912014 -3.55758,-2.764625 -4.30768,-4.760093 q -0.23574,-0.628647 -0.28813,-1.171564 -0.0547,-0.585784 -0.16669,-1.188241 -0.23336,-1.238244 -0.0238,-2.300278 0.43576,-2.209778 1.55495,-3.693299 c 0.71437,-0.9477234 1.88357,-2.1335768 2.99323,-2.6884035 2.68605,-1.3454001 6.10552,-1.2596834 8.65584,0.4000467 0.76438,0.4952867 1.3216,1.1525134 1.9812,1.7668701 1.06204,0.9882137 1.83356,2.7288947 1.99311,3.9647557 q 0.12859,0.976307 0.0881,2.331238 -0.0333,1.095364 -0.41195,2.085958 -0.70962,1.852611 -1.73117,3.064652 -2.20028,2.612215 -5.68881,3.021795 -2.25981,0.264317 -4.6482,-0.833437 z m 8.43915,-6.634121 q 0.20955,-0.738187 0.1524,-2.062158 -0.0381,-0.895347 -0.44767,-1.566851 c -0.84059,-1.385884 -2.22885,-2.469338 -3.86239,-2.564598 q -1.26206,-0.0738 -2.04788,0.18812 -2.03358,0.673887 -2.97894,2.831295 c -0.33813,0.771514 -0.25003,1.719248 -0.21907,2.555065 q 0.0239,0.711987 0.41195,1.412071 1.0287,1.859741 2.93847,2.574115 0.98822,0.3691 1.8788,0.15002 c 1.58353,-0.390527 2.92893,-1.102514 3.66475,-2.445525 q 0.42624,-0.778667 0.50958,-1.071554 z"
       id="path74"
       style="stroke-width:0.238125" />
    <path
       fill="#1b3441"
       d="m 58.144874,20.352383 a 0.3000375,0.3000375 0 0 0 0.300033,0.300027 l 7.088985,0.003 q 0.126207,0 0.211932,0.0929 0.638172,0.690557 0.683415,1.443024 c 0.04284,0.757234 0.03807,2.097868 -1.090611,2.097868 q -4.702968,0 -9.744075,0.005 a 1.114425,1.114425 0 0 1 -1.114425,-1.069174 q -0.06192,-1.502564 0.03807,-2.628885 c 0.02862,-0.32623 0.180981,-0.597687 0.180981,-0.942977 q 0.0045,-5.905457 0,-11.7799595 a 1.0977563,1.0977563 0 0 1 1.083465,-1.0977534 q 1.912149,-0.0262 4.255299,0.031 c 0.5715,0.0143 1.102518,0.1643067 1.693062,0.1619267 q 1.950246,-0.0119 3.638556,0.0166 0.48339,0.007 0.716751,0.4429067 0.8001,1.4882734 -0.271458,2.8217635 -0.133353,0.16431 -0.345285,0.16431 h -6.722271 q -0.416718,0 -0.419094,0.419097 l -0.01665,2.550295 a 0.42148124,0.42148124 0 0 0 0.421479,0.423867 q 2.881314,0.003 5.681664,0.004 0.366714,0 0.590544,0.28813 0.731043,0.942974 0.245268,2.209788 c -0.133344,0.347667 -0.40005,0.666744 -0.802476,0.664364 q -2.900367,-0.0262 -5.6007,0.0119 -0.704853,0.01 -0.704853,0.692947 z"
       id="path76"
       style="stroke-width:0.238125" />
    <path
       fill="#1b3441"
       d="m 157.63348,16.159027 -0.49292,-1.281104 a 0.085725,0.085725 0 0 1 0.0857,-0.116687 c 0.92393,0.0524 2.45268,0.195267 3.25755,-0.595307 0.48339,-0.476237 0.49769,-1.766871 0.10001,-2.293128 -0.72152,-0.959634 -1.60972,-1.504941 -2.77177,-1.473981 q -0.5453,0.0166 -1.10728,0.0119 -0.71914,-0.005 -0.74058,0.711994 -0.0833,2.712225 -0.0119,5.53161 0.0619,2.359808 -0.31194,3.528989 -0.66438,2.078828 -2.3884,3.105132 -1.40256,0.835817 -2.86464,0.973937 -2.38364,0.223837 -4.3172,-0.935837 -0.49055,-0.295267 -0.9406,-0.778654 c -0.4191,-0.447677 -0.89059,-0.826297 -1.20491,-1.366834 q -0.88583,-1.526371 -0.9025,-3.000362 -0.0381,-3.505179 -0.0239,-7.441358 a 0.32623124,0.3286125 0 0 0 -0.32623,-0.328617 h -4.56961 a 0.2428875,0.2428875 0 0 0 -0.24527,0.242887 l 0.007,12.551501 a 1.0882312,1.0906125 0.8 0 1 -1.1192,1.090604 q -0.5072,-0.0143 -1.15252,0.0143 c -0.78343,0.0333 -1.39779,-0.43576 -1.39541,-1.231094 q 0.0239,-5.19347 0.007,-11.065607 -0.003,-0.561977 -0.0357,-1.050124 A 0.60245624,0.60245624 0 0 0 133.56818,10.4036 l -4.20766,0.003 a 0.74294999,0.74294999 0 0 1 -0.74057,-0.6834167 c -0.0572,-0.6953167 -0.2286,-2.2693168 0.53101,-2.6741235 q 0.50245,-0.2690767 1.17872,-0.2714667 5.25066,-0.0119 10.88232,0.0285 c 0.36433,0.003 0.71437,0.1595467 1.10252,0.1619267 q 2.03834,0.01 3.80047,0.0357 c 0.5715,0.007 0.74771,0.6953167 0.75247,1.1358534 q 0.0428,4.2576448 0.007,8.9891578 -0.007,1.147764 0.3572,1.785941 c 0.54768,0.964394 1.81926,1.785918 2.97417,1.366821 1.19063,-0.433387 2.07169,-0.850104 2.06931,-2.312175 q -0.007,-4.798193 -0.01,-9.7083048 c 0,-0.8048567 0.34766,-1.4477901 1.2573,-1.4668401 q 2.22885,-0.0476 4.31958,-0.005 c 0.3429,0.007 0.662,0.1952567 1.01204,0.1738267 2.24551,-0.1404967 4.56486,1.6073401 5.37448,3.7004372 0.37624,0.969164 0.24765,2.162168 0.2286,3.198002 -0.0357,1.776401 -1.5621,3.371832 -3.08848,3.950469 a 0.180975,0.180975 0 0 0 -0.0857,0.271467 q 1.50495,2.226448 2.84321,4.488636 c 0.23336,0.392897 0.8382,1.247761 0.39052,1.645431 a 0.2524125,0.25955625 24.5 0 1 -0.17145,0.0667 l -3.12657,0.0119 q -0.1143,0 -0.20717,-0.069 -0.49768,-0.36909 -0.81439,-0.878677 -1.75736,-2.824142 -3.5052,-5.931654 a 0.32146875,0.32385 56.4 0 1 0.0857,-0.41434 l 0.78581,-0.600077 q 0.12382,-0.0953 0.069,-0.242877 z"
       id="path78"
       style="stroke-width:0.238125" />
    <path
       fill="#1b3441"
       d="m 176.13341,14.944593 c 1.77879,0.685797 2.70986,2.838435 2.7432,4.629123 q 0.0191,1.045367 -0.46672,1.812121 -0.64056,1.009644 -1.22635,1.540661 c -0.56436,0.509587 -1.78355,1.073944 -2.67176,1.142994 -0.48816,0.0381 -0.89059,0.21193 -1.38589,0.21431 q -3.08848,0.0166 -6.01265,0.01 a 0.69294374,0.69294374 0 0 1 -0.69057,-0.690557 q -0.0167,-7.965235 -0.0239,-15.7066288 c -0.003,-0.9191664 0.81677,-1.0977431 1.64306,-1.1072731 q 1.90024,-0.0166 3.83143,-0.004 c 0.67627,0.004 1.40018,0.1381067 2.06692,0.2500267 q 2.5146,0.4262367 3.46234,2.6765035 0.27147,0.6453167 0.23812,1.2953937 c -0.031,0.595307 0.0762,1.195381 -0.15239,1.766878 q -0.53578,1.345404 -1.38351,1.978811 -0.16192,0.121447 0.0285,0.192877 z m -6.06028,-3.962376 -0.005,2.090728 a 0.52625624,0.52625624 0 0 0 0.52626,0.526257 l 1.8526,0.003 a 1.5882937,1.4430375 0.1 0 0 1.59068,-1.440654 v -0.257167 a 1.5882937,1.4430375 0.1 0 0 -1.58591,-1.445411 l -1.85261,-0.003 a 0.52625624,0.52625624 0 0 0 -0.52626,0.526247 z m 0.003,6.538871 -0.0191,2.600315 a 0.54292499,0.54292499 0 0 0 0.54054,0.545307 l 2.34078,0.0166 a 2.0169187,1.7025937 0.4 0 0 2.02882,-1.688298 v -0.28098 a 2.0169187,1.7025937 0.4 0 0 -2.00501,-1.716881 l -2.34077,-0.0166 a 0.54292499,0.54292499 0 0 0 -0.5453,0.540537 z"
       id="path80"
       style="stroke-width:0.238125" />
    <path
       fill="#1b3441"
       d="m 49.169939,18.128305 q 1.171575,1.902611 2.505078,4.224316 c 0.292896,0.509587 0.561978,0.847727 0.611982,1.462081 q 0.03807,0.47387 -0.435771,0.47387 l -3.071808,0.005 a 0.30479999,0.3000375 73.7 0 1 -0.261945,-0.14526 l -4.22433,-6.800811 a 0.20478749,0.20240625 64.4 0 1 0.102393,-0.29765 q 0.478629,-0.173837 0.788193,-0.514347 a 0.2428875,0.24526875 56.1 0 0 0.05004,-0.247657 l -0.485775,-1.326344 q -0.100008,-0.269077 0.17145,-0.171447 2.547936,0.912014 3.593304,-1.381114 C 49.062821,12.206408 47.6555,10.846727 46.660136,10.54669 45.876713,10.31095 45.012317,10.42763 44.195549,10.4062 a 0.67627499,0.67389374 0.8 0 0 -0.695331,0.673887 l -0.0045,12.113351 a 1.0977563,1.1001375 0 0 1 -1.097757,1.100134 l -1.738314,-0.003 a 0.82867499,0.82867499 0 0 1 -0.828675,-0.828677 l -0.0027,-15.6090085 q 0,-0.8643867 0.866772,-0.8715367 3.378996,-0.0238 6.66036,0.01 c 1.96929,0.0191 3.857625,1.6549601 4.607712,3.3194402 0.388152,0.854864 0.733428,2.233598 0.428625,3.198002 -0.121437,0.380997 -0.10953,0.742947 -0.245268,1.116804 q -0.790569,2.212168 -2.828925,3.047982 a 0.31194374,0.314325 62.9 0 0 -0.147636,0.454817 z"
       id="path82"
       style="stroke-width:0.238125" />
    <path
       fill="#1b3441"
       d="m 95.52812,15.49942 a 0.29765624,0.295275 0.5 0 0 -0.297657,0.29051 q -0.02385,1.616861 -0.04284,3.074182 -0.01908,1.345401 -0.735813,2.578875 -0.642933,1.102514 -2.014533,2.000238 -1.045368,0.683417 -2.638431,0.842967 -3.490911,0.347657 -5.707854,-2.335998 C 83.324237,21.01913 82.959899,19.883276 82.96943,18.630752 q 0.04284,-5.691157 0.02385,-11.2513425 a 0.40481249,0.40481249 0 0 1 0.404811,-0.4071897 h 2.433636 q 0.821529,0.003 0.821529,0.8215167 l 0.01665,10.6727085 q 0,0.116677 0.05949,0.219077 0.2286,0.376237 0.464346,0.726267 c 0.523872,0.776294 1.476369,0.857244 2.393154,0.764384 1.090611,-0.109537 1.809747,-0.857244 1.985967,-1.914508 0.06426,-0.385767 0.211923,-0.731047 0.209547,-1.128714 q -0.0045,-5.24824 0,-9.7559215 a 0.40243125,0.40243125 0 0 1 0.40005,-0.4024297 q 1.185858,-0.004 2.178846,-0.01 0.45243,-0.003 0.76914,0.4357667 c 0.978696,1.3573134 1.688305,2.7503335 2.574139,4.0933475 q 1.202514,1.816888 2.350265,3.605189 0.18812,0.295277 0.45483,0.0715 0.29765,-0.25003 0.50005,-0.566737 1.94073,-3.031312 4.05528,-6.6531728 0.3167,-0.5429167 0.812,-0.9048734 0.1024,-0.0762 0.23098,-0.0762 l 2.38839,0.0143 a 0.62864999,0.62864999 0 0 1 0.59056,0.4238667 c 0.10954,0.31908 0.20717,0.6595967 0.20717,1.0001167 q 0,6.7388998 0.01,14.8422448 a 1.0334625,1.0334625 0 0 1 -1.0287,1.035844 l -1.69307,0.007 a 1.1120438,1.1096625 89.8 0 1 -1.11443,-1.107274 l -0.0238,-7.358018 a 0.10239375,0.142875 27.9 0 0 -0.005,-0.0357 q -0.1143,-0.32861 -0.31432,-0.24289 -0.1143,0.0524 -0.19527,0.15717 c -1.2573,1.674011 -2.35267,3.290862 -3.35994,5.04584 q -0.0786,0.13811 -0.23812,0.13811 l -2.038354,-0.003 a 0.28336874,0.28813125 75.7 0 1 -0.25003,-0.14525 q -1.362061,-2.447915 -3.169427,-5.05299 -0.130968,-0.1905 -0.345285,-0.1905 z"
       id="path84"
       style="stroke-width:0.238125" />
    <path
       fill="#1b3441"
       d="m 115.42344,17.337731 -0.003,2.900352 a 0.39766874,0.3952875 0.3 0 0 0.3929,0.395287 q 3.23375,0.0381 6.50797,0.0143 c 1.34778,-0.0119 1.23824,1.969291 1.09537,2.776525 -0.0786,0.454817 -0.55959,0.862017 -1.03346,0.862017 q -4.93633,-0.003 -9.88458,0.0119 a 0.61436249,0.61436249 0 0 1 -0.44053,-0.18574 c -0.3667,-0.378617 -0.50244,-0.885814 -0.50482,-1.414451 q -0.0119,-7.743788 0.0166,-14.5517378 a 1.1834813,1.1858625 0.2 0 1 1.18349,-1.1787134 l 9.63929,0.004 a 0.83343749,0.83343749 0 0 1 0.83344,0.8310567 l 0.007,1.8264068 A 0.77390624,0.77628749 89.8 0 1 122.45682,10.4076 l -6.32222,0.003 a 0.69294374,0.69294374 0 0 0 -0.69294,0.692944 l 0.003,2.216928 a 0.27860625,0.27860625 0 0 0 0.27146,0.27623 q 2.39792,0.0571 4.50295,0.0143 c 1.59305,-0.031 2.55984,0.516727 2.24075,2.397905 -0.0905,0.540537 -0.51435,0.971544 -1.06918,0.969164 q -2.73129,-0.0191 -5.61498,0.004 a 0.35480624,0.3571875 89.6 0 0 -0.35243,0.3548 z"
       id="path86"
       style="stroke-width:0.238125" />
    <path
       fill="#22272c"
       d="m 17.32325,6.9821598 q -0.843444,0.0243 -1.620207,0.0858 -0.541971,0.0428 -0.620073,-0.4600567 c -0.0495,-0.3205167 0.171927,-0.5191067 0.467199,-0.5567267 0.639603,-0.0819 1.219203,-0.15574 1.782126,-0.15622 a 0.01857375,0.01905 0 0 0 0.01854,-0.0191 l -0.01521,-1.7921168 q 0,-0.02 0.01386,-0.005 0.936783,0.9920234 1.895472,1.9464268 0.01377,0.0138 0.0333,0.0171 0.413856,0.0671 0.87201,0.20098 1.012032,0.2952667 1.77975,0.6743634 0.865341,0.42767 1.628775,1.0263034 c 0.241452,0.18908 0.378135,0.46625 0.215739,0.7629467 q -0.158121,0.2886067 -0.485298,0.3409967 -0.160497,0.0257 -0.346239,-0.0986 C 22.669628,8.7658969 22.415792,8.5568269 22.135757,8.3858602 q -1.01394,-0.6181767 -2.069784,-0.9505967 -0.49959,-0.1566767 -1.012509,-0.2757467 -0.05337,-0.0124 -0.09478,0.0239 -0.447192,0.3914767 -0.874863,0.8139034 c -0.239085,0.23527 -0.463392,0.5019667 -0.703422,0.7505667 q -0.02907,0.03 -0.03051,-0.0119 -0.02241,-0.8472437 -0.0045,-1.7306901 4.77e-4,-0.0229 -0.02241,-0.0224 z"
       id="path58-7"
       style="stroke-width:0.047625" />
    <path
       fill="#22272c"
       d="M 10.897682,9.2229066 C 8.9583896,9.2259066 7.7530015,7.8341665 7.2648508,6.0529964 q -0.0072,-0.0281 0.01998,-0.0185 0.5076807,0.17526 1.0077484,0.3467067 0.4000497,0.13716 0.9048684,0.29766 c 0.9591744,0.3047967 1.8635664,0.6172167 2.7946344,0.9205834 q 2.435544,0.7934267 4.841082,1.6430501 c 0.674847,0.2385997 1.41066,0.4595767 2.078361,0.7296167 q 0.703899,0.2847867 1.350162,0.7329337 c 0.616752,0.427677 1.236825,1.056794 1.63449,1.732111 q 0.726282,1.233484 0.714852,2.580315 0,0.031 -0.03096,0.031 -0.362907,-0.002 -0.670086,-0.006 -0.816291,-0.0119 -1.601154,-0.332427 -0.56007,-0.2286 -1.049175,-0.692937 C 18.961043,13.733272 18.684338,13.420842 18.444785,13.080325 Q 18.11903,12.617898 17.796614,12.164498 C 16.792673,10.753387 15.44108,9.7132633 13.736579,9.3403566 c -0.340515,-0.0743 -0.725805,-0.1062 -1.081089,-0.10954 q -0.848196,-0.009 -1.757835,-0.007 z"
       id="path60-9"
       style="stroke-width:0.047625" />
    <path
       fill="#22272c"
       d="m 26.782052,14.611166 q -0.09335,0.18479 -0.186696,0.375757 -0.09477,0.19335 -0.155736,0.389087 -0.160965,0.517217 -0.265266,0.980127 c -0.08811,0.391947 -0.170973,0.882004 -0.299565,1.296821 -0.142398,0.461477 -0.261936,0.936774 -0.470529,1.367304 q -0.185742,0.382897 -0.370998,0.718654 -0.164313,0.29718 -0.382437,0.596737 -0.135729,0.18574 -0.252882,0.364807 -0.100971,0.15382 -0.230031,0.29813 -0.128115,0.14288 -0.252414,0.278597 -0.794862,0.868217 -1.765458,1.420654 -0.39195,0.223367 -0.843435,0.429107 -2.0736,0.944394 -4.452462,0.666267 c -0.862011,-0.10049 -1.741176,-0.32909 -2.556036,-0.666747 q -0.630558,-0.26146 -1.194435,-0.500067 -0.422433,-0.17906 -0.810099,-0.2424 -0.284796,-0.0462 -0.838683,-0.0453 -2.4560184,0.005 -4.8782239,-4.8e-4 -2.1940833,-0.005 -4.3738833,0.0148 -0.406242,0.004 -0.562923,-0.0386 c -0.405288,-0.109537 -0.598167,-0.660084 -0.33957,-1.003924 q 0.234792,-0.311477 0.644841,-0.310517 3.037527,0.008 6.8341951,0.004 c 2.4855471,-0.003 5.0320521,0 7.6166631,-9e-4 0.934875,0 1.859283,-0.19621 2.782251,-0.536727 1.495422,-0.551967 2.783205,-1.623531 3.595689,-3.037502 q 0.356706,-0.620557 0.517203,-1.076804 0.294327,-0.834857 0.533403,-1.447784 0.183834,-0.471017 0.498636,-0.993464 c 0.436239,-0.726274 1.04346,-1.362061 1.800225,-1.724011 0.478152,-0.228117 1.019169,-0.402897 1.556379,-0.428147 a 0.0161925,0.0161925 0 0 0 0.01,-0.0281 Q 26.947302,11.073807 26.157678,10.812347 C 25.274706,10.5204 24.334116,10.46563 23.400186,10.587077 q -0.887247,0.11525 -2.037393,0.513387 -0.01242,0.005 -0.02574,0.003 -0.0063,-4.7e-4 -0.01242,0 a 0.02238375,0.02286 14.3 0 1 -0.02052,-0.0347 q 0.07047,-0.11049 0.188118,-0.2086 0.641988,-0.538637 1.35684,-0.8781937 c 1.529235,-0.7267567 3.397086,-0.7700967 4.867272,0.1428667 q 0.469584,0.29195 0.892494,0.587687 0.346707,0.24242 0.891063,0.406247 0.8082,0.24336 1.612107,0.42862 0.390996,0.0905 0.899631,0.22908 0.431964,0.11763 0.910116,0.21431 0.01476,0.004 0.01386,0.0185 -9e-4,0.011 -0.01242,0.0124 -1.132524,0.13573 -2.198367,0.284787 -0.682947,0.0962 -1.37637,0.27718 c -0.351945,0.0924 -0.705798,0.292407 -1.033938,0.471007 q -0.699129,0.380047 -1.189665,1.010114 -0.08712,0.11193 -0.311472,0.511017 -0.0027,0.005 -0.0036,0.011 -0.0018,0.008 -0.01,0.01 -0.01242,0.003 -0.01764,0.0143 z"
       id="path62-8"
       style="stroke-width:0.047625" />
    <path
       fill="#22272c"
       d="m 8.4992909,10.11777 c 0.429102,0.24337 0.9472587,0.391 1.4506554,0.476727 q 0.3967107,0.0671 0.9301137,0.0742 0.518634,0.006 1.039176,0.004 c 0.766287,-0.005 1.414467,0.0733 2.12265,0.37386 q 1.213956,0.515297 2.121696,1.572091 a 0.00766904,0.00766904 0 0 1 -0.009,0.0124 q -0.763425,-0.2948 -1.648773,-0.2986 -1.415898,-0.005 -2.690343,0.007 -0.471006,0.005 -0.818667,-0.0543 Q 9.9609533,12.108461 9.2418176,11.293114 8.7812789,10.770677 8.4636239,10.15155 q -0.03951,-0.0762 0.03528,-0.0338 z"
       id="path64-0"
       style="stroke-width:0.047625" />
    <path
       fill="#22272c"
       d="m 15.736856,13.799159 c 0.985365,0.15098 1.853568,0.668177 2.60271,1.368744 0.07236,0.0671 0.147636,0.12906 0.205263,0.210017 a 0.0123825,0.0123825 0 0 1 -0.01044,0.0195 q -0.436248,-0.0119 -0.838206,-0.0133 -2.119311,-0.007 -4.626288,-0.005 c -1.018224,0.002 -1.888335,-0.474817 -2.555082,-1.233471 q -0.306702,-0.3491 -0.6038817,-0.811997 -0.06957,-0.10906 0.03906,-0.0391 0.06714,0.0434 0.1395357,0.0724 0.717714,0.28861 1.512576,0.34148 0.329085,0.0214 0.664362,0.0247 1.309212,0.0124 2.577942,0.006 0.495783,-0.003 0.892494,0.0586 z"
       id="path66-3"
       style="stroke-width:0.047625" />
    <path
       fill="#22272c"
       d="m 20.745104,17.349591 c -0.399096,0.539107 -0.872019,0.987734 -1.458279,1.318721 q -1.103472,0.623407 -2.372202,0.758667 -0.370521,0.0401 -0.949644,0.0405 -5.844537,0.004 -11.6500222,0.007 c -0.311472,0 -0.52245,-0.36433 -0.280512,-0.607227 0.08856,-0.0891 0.249552,-0.10572 0.372429,-0.10572 q 4.2129091,0.002 8.7468022,-0.002 c 0.295281,0 0.677232,0.13764 0.894402,-0.11954 0.141444,-0.168117 0.10287,-0.398617 -0.04716,-0.549587 q -0.185742,-0.186207 -0.506727,-0.186687 -5.1492138,-0.003 -10.2989062,-0.004 -0.593406,0 -1.141101,-0.005 -0.257175,-0.003 -0.377667,-0.0557 -0.200025,-0.0877 -0.30384,-0.2567 c -0.196218,-0.318127 -0.05949,-0.780564 0.320985,-0.886764 q 0.116685,-0.0324 0.2367,-0.0324 9.6874012,4.7e-4 19.3276522,0.003 a 0.01143,0.01095375 16.2 0 1 0.0095,0.0171 c -0.154305,0.246687 -0.35433,0.439107 -0.522441,0.665797 z"
       id="path68-2"
       style="stroke-width:0.047625" />
    <path
       fill="#22272c"
       d="m 13.443242,23.890842 c 0.567684,0.30052 1.160145,0.522447 1.799748,0.689597 1.414458,0.369577 2.75463,0.290047 4.21767,-0.0233 0.100485,-0.0214 0.238122,-0.0158 0.336231,0.0243 q 0.444339,0.17955 0.359568,0.653897 c -0.07047,0.394807 -0.422433,0.461007 -0.756765,0.522437 -0.690084,0.12716 -1.362069,0.243847 -2.051208,0.255277 q -1.799271,0.0305 -3.37518,-0.581497 -1.025847,-0.398147 -1.935954,-0.981554 c -0.13383,-0.0857 -0.264321,-0.200027 -0.317664,-0.351467 q -0.122391,-0.348137 0.145737,-0.614367 c 0.227646,-0.226207 0.495774,-0.1843 0.770094,-0.0314 q 0.40338,0.22432 0.807723,0.438147 z"
       id="path70-3"
       style="stroke-width:0.047625" />
  </g>
</svg>
