<?xml version="1.0" encoding="UTF-8" standalone="no"?>
<svg
   xmlns:dc="http://purl.org/dc/elements/1.1/"
   xmlns:cc="http://creativecommons.org/ns#"
   xmlns:rdf="http://www.w3.org/1999/02/22-rdf-syntax-ns#"
   xmlns:svg="http://www.w3.org/2000/svg"
   xmlns="http://www.w3.org/2000/svg"
   xmlns:sodipodi="http://sodipodi.sourceforge.net/DTD/sodipodi-0.dtd"
   xmlns:inkscape="http://www.inkscape.org/namespaces/inkscape"
   width="32mm"
   height="32mm"
   viewBox="0 0 32 32"
   version="1.1"
   id="svg214"
   inkscape:version="1.0.2-2 (e86c870879, 2021-01-15)"
   sodipodi:docname="logo2 - Copie.svg">
  <defs
     id="defs208" />
  <sodipodi:namedview
     id="base"
     pagecolor="#ffffff"
     bordercolor="#666666"
     borderopacity="1.0"
     inkscape:pageopacity="0.0"
     inkscape:pageshadow="2"
     inkscape:zoom="5.6"
     inkscape:cx="121.24499"
     inkscape:cy="75.928151"
     inkscape:document-units="mm"
     inkscape:current-layer="layer1"
     inkscape:document-rotation="0"
     showgrid="false"
     inkscape:window-width="2458"
     inkscape:window-height="1198"
     inkscape:window-x="777"
     inkscape:window-y="92"
     inkscape:window-maximized="0" />
  <metadata
     id="metadata211">
    <rdf:RDF>
      <cc:Work
         rdf:about="">
        <dc:format>image/svg+xml</dc:format>
        <dc:type
           rdf:resource="http://purl.org/dc/dcmitype/StillImage" />
        <dc:title></dc:title>
      </cc:Work>
    </rdf:RDF>
  </metadata>
  <g
     inkscape:label="Calque 1"
     inkscape:groupmode="layer"
     id="layer1">
    <path
       fill="#22272c"
       d="m 16.264916,8.0404932 q -0.843444,0.0243 -1.620207,0.0858 -0.541971,0.0428 -0.620073,-0.4600567 c -0.0495,-0.3205167 0.171927,-0.5191067 0.467199,-0.5567267 0.639603,-0.0819 1.219203,-0.15574 1.782126,-0.15622 a 0.01857375,0.01905 0 0 0 0.01854,-0.0191 L 16.277291,5.142073 q 0,-0.02 0.01386,-0.005 0.936783,0.9920234 1.895472,1.9464268 0.01377,0.0138 0.0333,0.0171 0.413856,0.0671 0.87201,0.20098 1.012032,0.2952667 1.77975,0.6743634 0.865341,0.42767 1.628775,1.0263034 c 0.241452,0.18908 0.378135,0.46625 0.215739,0.7629467 Q 22.558076,10.0538 22.230899,10.10619 22.070402,10.13189 21.88466,10.00759 C 21.611294,9.8242303 21.357458,9.6151603 21.077423,9.4441936 Q 20.063483,8.8260169 19.007639,8.4935969 18.508049,8.3369202 17.99513,8.2178502 q -0.05337,-0.0124 -0.09478,0.0239 -0.447192,0.3914767 -0.874863,0.8139034 c -0.239085,0.23527 -0.463392,0.5019667 -0.703422,0.7505667 q -0.02907,0.03 -0.03051,-0.0119 -0.02241,-0.8472437 -0.0045,-1.7306901 4.77e-4,-0.0229 -0.02241,-0.0224 z"
       id="path58-7"
       style="stroke-width:0.047625" />
    <path
       fill="#22272c"
       d="M 9.8393483,10.28124 C 7.9000562,10.28424 6.6946681,8.8924999 6.2065174,7.1113298 q -0.0072,-0.0281 0.01998,-0.0185 0.5076807,0.17526 1.0077484,0.3467067 0.4000497,0.13716 0.9048684,0.29766 C 9.0982886,8.0419932 10.00268,8.3544132 10.933748,8.6577799 q 2.435544,0.7934267 4.841082,1.6430501 c 0.674847,0.2386 1.41066,0.459577 2.078361,0.729617 q 0.703899,0.284787 1.350162,0.732934 c 0.616752,0.427677 1.236825,1.056794 1.63449,1.732111 q 0.726282,1.233484 0.714852,2.580315 0,0.031 -0.03096,0.031 -0.362907,-0.002 -0.670086,-0.006 -0.816291,-0.0119 -1.601154,-0.332427 -0.56007,-0.2286 -1.049175,-0.692937 C 17.902709,14.791606 17.626004,14.479176 17.386451,14.138659 Q 17.060696,13.676232 16.73828,13.222832 C 15.734339,11.811721 14.382746,10.771597 12.678245,10.39869 12.33773,10.32439 11.95244,10.29249 11.597156,10.28915 q -0.848196,-0.009 -1.7578347,-0.007 z"
       id="path60-9"
       style="stroke-width:0.047625" />
    <path
       fill="#22272c"
       d="m 25.723718,15.6695 q -0.09335,0.18479 -0.186696,0.375757 -0.09477,0.19335 -0.155736,0.389087 -0.160965,0.517217 -0.265266,0.980127 c -0.08811,0.391947 -0.170973,0.882004 -0.299565,1.296821 -0.142398,0.461477 -0.261936,0.936774 -0.470529,1.367304 q -0.185742,0.382897 -0.370998,0.718654 -0.164313,0.29718 -0.382437,0.596737 -0.135729,0.18574 -0.252882,0.364807 -0.100971,0.15382 -0.230031,0.29813 -0.128115,0.14288 -0.252414,0.278597 -0.794862,0.868217 -1.765458,1.420654 -0.39195,0.223367 -0.843435,0.429107 -2.0736,0.944394 -4.452462,0.666267 c -0.862011,-0.10049 -1.741176,-0.32909 -2.556036,-0.666747 q -0.630558,-0.26146 -1.194435,-0.500067 -0.422433,-0.17906 -0.810099,-0.2424 -0.284796,-0.0462 -0.838683,-0.0453 -2.4560178,0.005 -4.8782233,-4.8e-4 -2.1940833,-0.005 -4.3738833,0.0148 -0.40624197,0.004 -0.56292297,-0.0386 C 0.17623846,23.263218 -0.01664054,22.712671 0.24195646,22.368831 q 0.23479197,-0.311477 0.64484097,-0.310517 3.03752697,0.008 6.83419507,0.004 c 2.4855465,-0.003 5.0320515,0 7.6166625,-9e-4 0.934875,0 1.859283,-0.19621 2.782251,-0.536727 1.495422,-0.551967 2.783205,-1.623531 3.595689,-3.037502 q 0.356706,-0.620557 0.517203,-1.076804 0.294327,-0.834857 0.533403,-1.447784 0.183834,-0.471017 0.498636,-0.993464 c 0.436239,-0.726274 1.04346,-1.362061 1.800225,-1.724011 0.478152,-0.228117 1.019169,-0.402897 1.556379,-0.428147 a 0.0161925,0.0161925 0 0 0 0.01,-0.0281 q -0.742473,-0.656734 -1.532097,-0.918194 c -0.882972,-0.291947 -1.823562,-0.346717 -2.757492,-0.22527 q -0.887247,0.11525 -2.037393,0.513387 -0.01242,0.005 -0.02574,0.003 -0.0063,-4.7e-4 -0.01242,0 a 0.02238375,0.02286 14.3 0 1 -0.02052,-0.0347 q 0.07047,-0.11049 0.188118,-0.2086 0.641988,-0.538637 1.35684,-0.878194 c 1.529235,-0.726757 3.397086,-0.770097 4.867272,0.142867 q 0.469584,0.29195 0.892494,0.587687 0.346707,0.24242 0.891063,0.406247 0.8082,0.24336 1.612107,0.42862 0.390996,0.0905 0.899631,0.22908 0.431964,0.11763 0.910116,0.21431 0.01476,0.004 0.01386,0.0185 -9e-4,0.011 -0.01242,0.0124 -1.132524,0.13573 -2.198367,0.284787 -0.682947,0.0962 -1.37637,0.27718 c -0.351945,0.0924 -0.705798,0.292407 -1.033938,0.471007 q -0.699129,0.380047 -1.189665,1.010114 -0.08712,0.11193 -0.311472,0.511017 -0.0027,0.005 -0.0036,0.011 -0.0018,0.008 -0.01,0.01 -0.01242,0.003 -0.01764,0.0143 z"
       id="path62-8"
       style="stroke-width:0.047625" />
    <path
       fill="#22272c"
       d="m 7.4409575,11.176104 c 0.429102,0.24337 0.9472587,0.391 1.4506554,0.476727 q 0.3967107,0.0671 0.9301134,0.0742 0.5186337,0.006 1.0391757,0.004 c 0.766287,-0.005 1.414467,0.0733 2.12265,0.37386 q 1.213956,0.515297 2.121696,1.572091 a 0.00766904,0.00766904 0 0 1 -0.009,0.0124 q -0.763425,-0.2948 -1.648773,-0.2986 -1.415898,-0.005 -2.690343,0.007 -0.471006,0.005 -0.8186667,-0.0543 -1.0358454,-0.176687 -1.7549811,-0.992034 -0.4605387,-0.522437 -0.7781937,-1.141564 -0.03951,-0.0762 0.03528,-0.0338 z"
       id="path64-0"
       style="stroke-width:0.047625" />
    <path
       fill="#22272c"
       d="m 14.678522,14.857493 c 0.985365,0.15098 1.853568,0.668177 2.60271,1.368744 0.07236,0.0671 0.147636,0.12906 0.205263,0.210017 a 0.0123825,0.0123825 0 0 1 -0.01044,0.0195 q -0.436248,-0.0119 -0.838206,-0.0133 -2.119311,-0.007 -4.626288,-0.005 c -1.018224,0.002 -1.888335,-0.474817 -2.5550814,-1.233471 q -0.306702,-0.3491 -0.6038817,-0.811997 -0.06957,-0.10906 0.03906,-0.0391 0.06714,0.0434 0.1395357,0.0724 0.7177137,0.28861 1.5125754,0.34148 0.329085,0.0214 0.664362,0.0247 1.309212,0.0124 2.577942,0.006 0.495783,-0.003 0.892494,0.0586 z"
       id="path66-3"
       style="stroke-width:0.047625" />
    <path
       fill="#22272c"
       d="m 19.68677,18.407925 c -0.399096,0.539107 -0.872019,0.987734 -1.458279,1.318721 q -1.103472,0.623407 -2.372202,0.758667 -0.370521,0.0401 -0.949644,0.0405 -5.8445364,0.004 -11.6500216,0.007 c -0.311472,0 -0.52245,-0.36433 -0.280512,-0.607227 0.08856,-0.0891 0.249552,-0.10572 0.372429,-0.10572 q 4.2129091,0.002 8.7468016,-0.002 c 0.295281,0 0.677232,0.13764 0.894402,-0.11954 0.141444,-0.168117 0.10287,-0.398617 -0.04716,-0.549587 q -0.185742,-0.186207 -0.506727,-0.186687 -5.1492132,-0.003 -10.2989056,-0.004 -0.593406,0 -1.14110097,-0.005 -0.257175,-0.003 -0.377667,-0.0557 -0.20002497,-0.0877 -0.30383997,-0.2567 c -0.196218,-0.318127 -0.05949,-0.780564 0.32098497,-0.886764 q 0.116685,-0.0324 0.2367,-0.0324 9.68740057,4.7e-4 19.32765157,0.003 a 0.01143,0.01095375 16.2 0 1 0.0095,0.0171 c -0.154305,0.246687 -0.35433,0.439107 -0.522441,0.665797 z"
       id="path68-2"
       style="stroke-width:0.047625" />
    <path
       fill="#22272c"
       d="m 12.384908,24.949176 c 0.567684,0.30052 1.160145,0.522447 1.799748,0.689597 1.414458,0.369577 2.75463,0.290047 4.21767,-0.0233 0.100485,-0.0214 0.238122,-0.0158 0.336231,0.0243 q 0.444339,0.17955 0.359568,0.653897 c -0.07047,0.394807 -0.422433,0.461007 -0.756765,0.522437 -0.690084,0.12716 -1.362069,0.243847 -2.051208,0.255277 q -1.799271,0.0305 -3.37518,-0.581497 -1.025847,-0.398147 -1.935954,-0.981554 c -0.13383,-0.0857 -0.264321,-0.200027 -0.317664,-0.351467 q -0.122391,-0.348137 0.145737,-0.614367 c 0.227646,-0.226207 0.495774,-0.1843 0.770094,-0.0314 q 0.40338,0.22432 0.807723,0.438147 z"
       id="path70-3"
       style="stroke-width:0.047625" />
  </g>
</svg>
