<?xml version="1.0" encoding="UTF-8" standalone="no"?>
<svg
   xmlns:dc="http://purl.org/dc/elements/1.1/"
   xmlns:cc="http://creativecommons.org/ns#"
   xmlns:rdf="http://www.w3.org/1999/02/22-rdf-syntax-ns#"
   xmlns:svg="http://www.w3.org/2000/svg"
   xmlns="http://www.w3.org/2000/svg"
   xmlns:sodipodi="http://sodipodi.sourceforge.net/DTD/sodipodi-0.dtd"
   xmlns:inkscape="http://www.inkscape.org/namespaces/inkscape"
   width="32mm"
   height="32mm"
   viewBox="0 0 32 32"
   version="1.1"
   id="svg214"
   inkscape:version="1.0.2-2 (e86c870879, 2021-01-15)"
   sodipodi:docname="logo4.svg">
  <defs
     id="defs208" />
  <sodipodi:namedview
     id="base"
     pagecolor="#ffffff"
     bordercolor="#666666"
     borderopacity="1.0"
     inkscape:pageopacity="0.0"
     inkscape:pageshadow="2"
     inkscape:zoom="5.7084457"
     inkscape:cx="79.922993"
     inkscape:cy="70.721195"
     inkscape:document-units="mm"
     inkscape:current-layer="layer1"
     inkscape:document-rotation="0"
     showgrid="false"
     inkscape:window-width="3440"
     inkscape:window-height="1377"
     inkscape:window-x="-8"
     inkscape:window-y="-8"
     inkscape:window-maximized="1" />
  <metadata
     id="metadata211">
    <rdf:RDF>
      <cc:Work
         rdf:about="">
        <dc:format>image/svg+xml</dc:format>
        <dc:type
           rdf:resource="http://purl.org/dc/dcmitype/StillImage" />
        <dc:title />
      </cc:Work>
    </rdf:RDF>
  </metadata>
  <g
     inkscape:label="Calque 1"
     inkscape:groupmode="layer"
     id="layer1">
    <rect
       style="fill:#c8beb7;stroke-width:0.264583"
       id="rect255"
       width="32.005123"
       height="32.005119"
       x="0.012925427"
       y="0.012626524"
       ry="10.121402"
       rx="0" />
    <path
       fill="#22272c"
       d="m 16.139169,8.9231577 q -0.798432,0.023002 -1.533741,0.081221 -0.513047,0.040516 -0.586982,-0.4355046 c -0.04686,-0.3034119 0.162752,-0.4914035 0.442267,-0.5270159 0.605468,-0.077529 1.154136,-0.1474285 1.687018,-0.1478829 a 0.01758251,0.01803334 0 0 0 0.01754,-0.018081 l -0.01439,-1.6964756 q 0,-0.018933 0.01312,-0.00474 0.886791,0.9390814 1.794315,1.8425502 0.01302,0.013063 0.03153,0.016187 0.39177,0.063519 0.825473,0.1902542 0.958023,0.279509 1.684768,0.6383741 0.81916,0.4048463 1.541851,0.971532 c 0.228567,0.1789888 0.357955,0.4413678 0.204226,0.7222288 q -0.149684,0.273209 -0.4594,0.322804 -0.151931,0.02432 -0.32776,-0.09334 C 21.200222,10.611701 20.959932,10.413788 20.694842,10.251946 Q 19.735013,9.6667598 18.735517,9.3520802 18.26259,9.203765 17.777044,9.0910495 q -0.05052,-0.011738 -0.08973,0.022625 -0.423326,0.3705844 -0.828173,0.7704671 c -0.226322,0.2227144 -0.438658,0.4751774 -0.665878,0.7105104 q -0.02752,0.0284 -0.02888,-0.01124 -0.02122,-0.8020286 -0.0043,-1.6383275 4.52e-4,-0.021678 -0.02121,-0.021205 z"
       id="path58-7"
       style="stroke-width:0.0450834" />
    <path
       fill="#22272c"
       d="M 10.056519,11.044321 C 8.2207242,11.047121 7.0796668,9.7296947 6.6175671,8.0435816 q -0.0068,-0.026601 0.01891,-0.017512 0.4805867,0.1659068 0.9539674,0.3282037 0.3786987,0.1298401 0.8565754,0.2817746 C 9.3550046,8.924578 10.21113,9.2203247 11.092509,9.5075015 q 2.305564,0.7510835 4.582723,1.5553635 c 0.638831,0.225867 1.335377,0.435051 1.967444,0.69068 q 0.666334,0.269589 1.278107,0.693819 c 0.583838,0.404853 1.170819,1.000395 1.547262,1.639671 q 0.687521,1.167657 0.676702,2.44261 0,0.02934 -0.0293,0.02934 -0.343539,-0.0019 -0.634325,-0.0057 -0.772727,-0.01123 -1.515704,-0.314686 -0.53018,-0.2164 -0.993183,-0.655956 c -0.282674,-0.268694 -0.544612,-0.564449 -0.77138,-0.886794 q -0.30837,-0.43775 -0.61358,-0.866952 c -0.950363,-1.335803 -2.229825,-2.320417 -3.84336,-2.673423 -0.322341,-0.07033 -0.68707,-0.10053 -1.023394,-0.103689 q -0.802932,-0.0085 -1.664025,-0.0066 z"
       id="path60-9"
       style="stroke-width:0.0450834" />
    <path
       fill="#22272c"
       d="m 25.093176,16.145022 q -0.08837,0.174927 -0.176733,0.355703 -0.0897,0.183032 -0.147426,0.368323 -0.152374,0.489613 -0.251108,0.927819 c -0.08341,0.371031 -0.161849,0.834934 -0.283579,1.227613 -0.134798,0.436849 -0.247955,0.886782 -0.445417,1.294334 q -0.17583,0.362462 -0.351199,0.680302 -0.155543,0.281319 -0.362026,0.564889 -0.128486,0.175827 -0.239387,0.345339 -0.09558,0.14561 -0.217754,0.282219 -0.121279,0.135255 -0.238944,0.263728 -0.752442,0.821882 -1.67124,1.344838 -0.371033,0.211446 -0.798423,0.406206 -1.962937,0.893995 -4.214844,0.63071 c -0.816008,-0.09513 -1.648253,-0.311527 -2.419626,-0.631163 q -0.596907,-0.247508 -1.130691,-0.473381 -0.399888,-0.169502 -0.766865,-0.229464 -0.269598,-0.04374 -0.793924,-0.04289 -2.3249448,0.0047 -4.6178786,-4.53e-4 -2.0769888,-0.0047 -4.1404556,0.01401 -0.3845607,0.0038 -0.5328807,-0.03655 C 0.90911743,23.333471 0.72653243,22.812305 0.97132843,22.486815 Q 1.1935891,22.191962 1.5817548,22.19287 q 2.8754175,0.0075 6.4694614,0.0038 c 2.3528968,-0.0029 4.7634998,0 7.2101758,-8.1e-4 0.884984,0 1.760058,-0.185741 2.633771,-0.508085 1.415613,-0.522509 2.634671,-1.536886 3.403795,-2.875397 q 0.337668,-0.587439 0.4896,-1.019335 0.27862,-0.790305 0.504937,-1.37052 0.174023,-0.44588 0.472024,-0.940446 c 0.412958,-0.687514 0.987773,-1.289371 1.704151,-1.632004 0.452634,-0.215943 0.964779,-0.381396 1.473319,-0.405298 a 0.01532834,0.01532834 0 0 0 0.0095,-0.0266 q -0.702904,-0.62174 -1.450388,-0.869247 C 23.666252,12.272562 22.775859,12.220714 21.89177,12.335681 q -0.839896,0.109101 -1.928661,0.485989 -0.01176,0.0048 -0.02436,0.0029 -0.0059,-4.46e-4 -0.01175,0 a 0.02118917,0.02164001 14.3 0 1 -0.01942,-0.03285 q 0.0667,-0.104594 0.178079,-0.197468 0.607726,-0.509891 1.284428,-0.831328 c 1.447623,-0.687971 3.215792,-0.728998 4.607517,0.135244 q 0.444524,0.276369 0.844862,0.556324 0.328205,0.229482 0.843511,0.384564 0.765068,0.230373 1.526072,0.405747 0.37013,0.08567 0.85162,0.216855 0.40891,0.111358 0.861545,0.202871 0.01397,0.0038 0.01312,0.01751 -8.91e-4,0.01042 -0.01175,0.01173 -1.072085,0.128487 -2.081046,0.26959 -0.6465,0.09106 -1.302915,0.262388 c -0.333162,0.08747 -0.668132,0.2768 -0.97876,0.445869 q -0.661818,0.359765 -1.126176,0.956207 -0.08247,0.105961 -0.294849,0.483744 -0.0025,0.0048 -0.0034,0.01042 -0.0017,0.0076 -0.0095,0.0095 -0.01175,0.0029 -0.0167,0.01355 z"
       id="path62-8"
       style="stroke-width:0.0450834" />
    <path
       fill="#22272c"
       d="m 7.7861265,11.891428 c 0.4062017,0.230382 0.8967054,0.370133 1.3732371,0.451285 q 0.3755387,0.06352 0.8804734,0.07024 0.490954,0.0057 0.983717,0.0038 c 0.725393,-0.0047 1.33898,0.06939 2.009369,0.353908 q 1.14917,0.487796 2.008466,1.488193 a 0.00727243,0.00727243 0 0 1 -0.0086,0.01173 q -0.722684,-0.279068 -1.560782,-0.282666 -1.340335,-0.0048 -2.546766,0.0067 -0.445868,0.0048 -0.774976,-0.05141 Q 9.1697016,13.77595 8.4889449,13.004116 8.0529842,12.509561 7.7522825,11.923475 q -0.0374,-0.07214 0.0334,-0.03199 z"
       id="path64-0"
       style="stroke-width:0.0450834" />
    <path
       fill="#22272c"
       d="m 14.637436,15.376349 c 0.932779,0.142923 1.754648,0.63252 2.463809,1.295697 0.0685,0.06352 0.139757,0.122175 0.194308,0.19881 a 0.01172167,0.01172167 0 0 1 -0.0099,0.01846 q -0.412965,-0.01123 -0.793472,-0.0126 -2.006208,-0.0067 -4.379393,-0.0047 c -0.963884,0.0019 -1.787559,-0.449478 -2.4187207,-1.167643 q -0.2903347,-0.33047 -0.5716547,-0.768663 -0.06586,-0.103236 0.03697,-0.037 0.06356,0.04109 0.132089,0.06854 0.6794097,0.273207 1.4318514,0.323256 0.311523,0.02026 0.628906,0.02338 1.239343,0.01173 2.440364,0.0057 0.469324,-0.0029 0.844864,0.05547 z"
       id="path66-3"
       style="stroke-width:0.0450834" />
    <path
       fill="#22272c"
       d="m 19.378405,18.737303 c -0.377795,0.510336 -0.825481,0.93502 -1.380453,1.248344 q -1.044584,0.590137 -2.245604,0.718177 -0.350747,0.03796 -0.898963,0.03834 -5.5326254,0.0038 -11.0282794,0.0067 c -0.2948487,0 -0.4945677,-0.344885 -0.2655407,-0.574819 0.08383,-0.08435 0.2362327,-0.100077 0.3525527,-0.100077 q 3.9880706,0.0019 8.2799974,-0.0019 c 0.279523,0 0.64109,0.130294 0.84667,-0.113166 0.133895,-0.159145 0.09738,-0.377342 -0.04464,-0.520256 q -0.17583,-0.176271 -0.479684,-0.176725 -4.8744085,-0.0029 -9.7492688,-0.0038 -0.5617367,0 -1.0802014,-0.0047 -0.2434497,-0.0029 -0.3575117,-0.05272 -0.189349,-0.08302 -0.287624,-0.243 c -0.18575267,-0.301138 -0.05632,-0.738896 0.303848,-0.839427 q 0.110458,-0.03067 0.2240677,-0.03067 9.1703962,4.43e-4 18.2961692,0.0028 a 0.01082001,0.01036918 16.2 0 1 0.0091,0.01618 c -0.146072,0.233521 -0.335421,0.415672 -0.49456,0.630264 z"
       id="path68-2"
       style="stroke-width:0.0450834" />
    <path
       fill="#22272c"
       d="m 12.466227,24.929462 c 0.537389,0.284482 1.09823,0.494565 1.703699,0.652795 1.338972,0.349853 2.607622,0.274568 3.992584,-0.02205 0.09512,-0.02026 0.225413,-0.01495 0.318286,0.023 q 0.420626,0.169968 0.34038,0.618999 c -0.0667,0.373738 -0.39989,0.436406 -0.71638,0.494557 -0.653255,0.120374 -1.289377,0.230834 -1.941739,0.241654 q -1.703247,0.02887 -3.195055,-0.550464 -0.971098,-0.376899 -1.832636,-0.929171 c -0.126687,-0.08112 -0.250213,-0.189349 -0.30071,-0.332707 q -0.115861,-0.329562 0.13796,-0.581584 c 0.215496,-0.214134 0.469315,-0.174464 0.728995,-0.02973 q 0.381852,0.212349 0.764616,0.414764 z"
       id="path70-3"
       style="stroke-width:0.0450834" />
  </g>
</svg>
