<?xml version="1.0" encoding="UTF-8" standalone="no"?>
<svg
   xmlns:dc="http://purl.org/dc/elements/1.1/"
   xmlns:cc="http://creativecommons.org/ns#"
   xmlns:rdf="http://www.w3.org/1999/02/22-rdf-syntax-ns#"
   xmlns:svg="http://www.w3.org/2000/svg"
   xmlns="http://www.w3.org/2000/svg"
   xmlns:sodipodi="http://sodipodi.sourceforge.net/DTD/sodipodi-0.dtd"
   xmlns:inkscape="http://www.inkscape.org/namespaces/inkscape"
   version="1.1"
   viewBox="0 0 800 800"
   id="svg94"
   sodipodi:docname="logo.svg"
   inkscape:version="1.0.2-2 (e86c870879, 2021-01-15)"
   width="800"
   height="800">
  <metadata
     id="metadata100">
    <rdf:RDF>
      <cc:Work
         rdf:about="">
        <dc:format>image/svg+xml</dc:format>
        <dc:type
           rdf:resource="http://purl.org/dc/dcmitype/StillImage" />
        <dc:title></dc:title>
      </cc:Work>
    </rdf:RDF>
  </metadata>
  <defs
     id="defs98" />
  <sodipodi:namedview
     pagecolor="#ffffff"
     bordercolor="#666666"
     borderopacity="1"
     objecttolerance="10"
     gridtolerance="10"
     guidetolerance="10"
     inkscape:pageopacity="0"
     inkscape:pageshadow="2"
     inkscape:window-width="3440"
     inkscape:window-height="1377"
     id="namedview96"
     showgrid="false"
     inkscape:zoom="1.4142136"
     inkscape:cx="502.09279"
     inkscape:cy="382.07661"
     inkscape:window-x="-8"
     inkscape:window-y="-8"
     inkscape:window-maximized="1"
     inkscape:current-layer="svg94"
     inkscape:document-rotation="0" />
  <path
     fill="#22272c"
     d="m 407.26439,170.67877 q -17.71,0.51 -34.02,1.8 -11.38,0.9 -13.02,-9.66 c -1.04,-6.73 3.61,-10.9 9.81,-11.69 13.43,-1.72 25.6,-3.27 37.42,-3.28 a 0.39,0.4 0 0 0 0.39,-0.4 l -0.32,-37.63 q 0,-0.42 0.29,-0.12 19.67,20.83 39.8,40.87 0.29,0.29 0.7,0.36 8.69,1.41 18.31,4.22 21.25,6.2 37.37,14.16 18.17,8.98 34.2,21.55 c 5.07,3.97 7.94,9.79 4.53,16.02 q -3.32,6.06 -10.19,7.16 -3.37,0.54 -7.27,-2.07 c -5.74,-3.85 -11.07,-8.24 -16.95,-11.83 q -21.29,-12.98 -43.46,-19.96 -10.49,-3.29 -21.26,-5.79 -1.12,-0.26 -1.99,0.5 -9.39,8.22 -18.37,17.09 c -5.02,4.94 -9.73,10.54 -14.77,15.76 q -0.61,0.63 -0.64,-0.25 -0.47,-17.79 -0.09,-36.34 0.01,-0.48 -0.47,-0.47 z"
     id="path58" />
  <path
     fill="#22272c"
     d="m 272.34439,217.72877 c -40.72,0.05 -66.03,-29.16 -76.28,-66.56 q -0.16,-0.59 0.42,-0.39 10.66,3.68 21.16,7.28 8.4,2.88 19,6.25 c 20.14,6.4 39.13,12.96 58.68,19.33 q 51.14,16.66 101.65,34.5 c 14.17,5.01 29.62,9.65 43.64,15.32 q 14.78,5.98 28.35,15.39 c 12.95,8.98 25.97,22.19 34.32,36.37 q 15.25,25.9 15.01,54.18 0,0.65 -0.65,0.65 -7.62,-0.04 -14.07,-0.14 -17.14,-0.25 -33.62,-6.98 -11.76,-4.8 -22.03,-14.55 c -6.27,-5.96 -12.08,-12.52 -17.11,-19.67 q -6.84,-9.71 -13.61,-19.23 c -21.08,-29.63 -49.46,-51.47 -85.25,-59.3 -7.15,-1.56 -15.24,-2.23 -22.7,-2.3 q -17.81,-0.18 -36.91,-0.15 z"
     id="path60" />
  <path
     fill="#22272c"
     d="m 605.87439,330.86877 q -1.96,3.88 -3.92,7.89 -1.99,4.06 -3.27,8.17 -3.38,10.86 -5.57,20.58 c -1.85,8.23 -3.59,18.52 -6.29,27.23 -2.99,9.69 -5.5,19.67 -9.88,28.71 q -3.9,8.04 -7.79,15.09 -3.45,6.24 -8.03,12.53 -2.85,3.9 -5.31,7.66 -2.12,3.23 -4.83,6.26 -2.69,3.00003 -5.3,5.85003 -16.69,18.23 -37.07,29.83 -8.23,4.69 -17.71,9.01 -43.54,19.83 -93.49,13.99 c -18.1,-2.11 -36.56,-6.91 -53.67,-14 q -13.24,-5.49 -25.08,-10.5 -8.87,-3.76 -17.01,-5.09 -5.98,-0.97 -17.61,-0.95 -51.57,0.12 -102.43,-0.01 -46.07,-0.11 -91.84,0.31 -8.53,0.08 -11.82,-0.81 c -8.51,-2.3 -12.56,-13.86 -7.13,-21.08 q 4.93,-6.54003 13.54,-6.52003 63.78,0.17 143.5,0.09 c 52.19,-0.06 105.66,0 159.93,-0.02 19.63,0 39.04,-4.12 58.42,-11.27 31.4,-11.59 58.44,-34.09 75.5,-63.78 q 7.49,-13.03 10.86,-22.61 6.18,-17.53 11.2,-30.4 3.86,-9.89 10.47,-20.86 c 9.16,-15.25 21.91,-28.6 37.8,-36.2 10.04,-4.79 21.4,-8.46 32.68,-8.99 a 0.34,0.34 0 0 0 0.21,-0.59 q -15.59,-13.79 -32.17,-19.28 c -18.54,-6.13 -38.29,-7.28 -57.9,-4.73 q -18.63,2.42 -42.78,10.78 -0.26,0.09 -0.54,0.06 -0.13,-0.01 -0.26,0 a 0.47,0.48 14.3 0 1 -0.43,-0.73 q 1.48,-2.32 3.95,-4.38 13.48,-11.31 28.49,-18.44 c 32.11,-15.26 71.33,-16.17 102.2,3 q 9.86,6.13 18.74,12.34 7.28,5.09 18.71,8.53 16.97,5.11 33.85,9 8.21,1.9 18.89,4.81 9.07,2.47 19.11,4.5 0.31,0.07 0.29,0.39 -0.02,0.23 -0.26,0.26 -23.78,2.85 -46.16,5.98 -14.34,2.02 -28.9,5.82 c -7.39,1.94 -14.82,6.14 -21.71,9.89 q -14.68,7.98 -24.98,21.21 -1.83,2.35 -6.54,10.73 -0.06,0.11 -0.08,0.23 -0.04,0.17 -0.21,0.21 -0.26,0.06 -0.37,0.3 z"
     id="path62" />
  <path
     fill="#22272c"
     d="m 221.98439,236.51877 c 9.01,5.11 19.89,8.21 30.46,10.01 q 8.33,1.41 19.53,1.56 10.89,0.14 21.82,0.07 c 16.09,-0.1 29.7,1.54 44.57,7.85 q 25.49,10.82 44.55,33.01 a 0.16,0.16 0 0 1 -0.18,0.26 q -16.03,-6.19 -34.62,-6.27 -29.73,-0.12 -56.49,0.16 -9.89,0.11 -17.19,-1.14 -21.75,-3.71 -36.85,-20.83 -9.67,-10.97 -16.34,-23.97 -0.83,-1.6 0.74,-0.71 z"
     id="path64" />
  <path
     fill="#22272c"
     d="m 373.95439,313.81877 c 20.69,3.17 38.92,14.03 54.65,28.74 1.52,1.41 3.1,2.71 4.31,4.41 a 0.26,0.26 0 0 1 -0.22,0.41 q -9.16,-0.25 -17.6,-0.28 -44.5,-0.16 -97.14,-0.09 c -21.38,0.03 -39.65,-9.97 -53.65,-25.9 q -6.44,-7.33 -12.68,-17.05 -1.46,-2.29 0.82,-0.82 1.41,0.91 2.93,1.52 15.07,6.06 31.76,7.17 6.91,0.45 13.95,0.52 27.49,0.26 54.13,0.14 10.41,-0.05 18.74,1.23 z"
     id="path66" />
  <path
     fill="#22272c"
     d="m 479.11439,388.36877 c -8.38,11.32 -18.31,20.74 -30.62,27.69 q -23.17,13.09 -49.81,15.93 -7.78,0.84 -19.94,0.85 -122.72,0.09 -244.62,0.15 c -6.54,0 -10.97,-7.65 -5.89,-12.75 1.86,-1.87 5.24,-2.22 7.82,-2.22 q 88.46,0.04 183.66,-0.03 c 6.2,0 14.22,2.89 18.78,-2.51 2.97,-3.53 2.16,-8.37 -0.99,-11.54 q -3.9,-3.91 -10.64,-3.92 -108.12,-0.06 -216.25,-0.08 -12.46,0 -23.96,-0.11 -5.4,-0.05 -7.93,-1.17 -4.2,-1.84 -6.38,-5.39 c -4.12,-6.68 -1.25,-16.39 6.74,-18.62 q 2.45,-0.68 4.97,-0.68 203.41,0.01 405.83,0.06 a 0.24,0.23 16.2 0 1 0.2,0.36 c -3.24,5.18 -7.44,9.22 -10.97,13.98 z"
     id="path68" />
  <path
     fill="#22272c"
     d="m 325.79439,525.7188 c 11.92,6.31 24.36,10.97 37.79,14.48 29.7,7.76 57.84,6.09 88.56,-0.49 2.11,-0.45 5,-0.33 7.06,0.51 q 9.33,3.77 7.55,13.73 c -1.48,8.29 -8.87,9.68 -15.89,10.97 -14.49,2.67 -28.6,5.12 -43.07,5.36 q -37.78,0.64 -70.87,-12.21 -21.54,-8.36 -40.65,-20.61 c -2.81,-1.8 -5.55,-4.2 -6.67,-7.38 q -2.57,-7.31 3.06,-12.9 c 4.78,-4.75 10.41,-3.87 16.17,-0.66 q 8.47,4.71 16.96,9.2 z"
     id="path70" />
  <path
     fill="#1b3441"
     d="m 209.20439,714.2088 c -6.29,-0.41 -12.6,-4.25 -18,-7.97 q -2.12,-1.47 -3.44,-3.59 -0.34,-0.55 0.03,-1.08 3.98,-5.66 8.77,-10.53 a 0.29,0.28 41.2 0 1 0.39,-0.02 q 4.79,4.06 10.39,6.5 9.21,4 14.87,-2.04 c 4.73,-5.05 -2.91,-8.64 -6.66,-9.8 q -8.31,-2.58 -16.08,-6.39 c -5.36,-2.62 -10.04,-8.41 -9.7,-14.69 0.16,-2.82 -0.32,-5.86 0.54,-8.53 3.07,-9.51 11.55,-16.18 21.7,-15.6 q 3.36,0.19 7.06,0.01 2.91,-0.13 6.32,1.11 7.09,2.58 12.17,6.74 a 0.94,0.93 41.1 0 1 0.1,1.35 q -4.26,4.73 -7.61,9.95 a 1.31,1.31 0 0 1 -1.72,0.45 c -6.81,-3.64 -15.31,-9.03 -21.39,-0.78 -3.01,4.08 3.46,8.12 6.63,9.24 q 5.13,1.82 10.74,4.01 6.22,2.42 9.66,5.87 5.75,5.74 5.91,13.78 0.08,4.16 -2.07,8.71 c -1.65,3.49 -4.87,6.26 -7.64,8.84 q -2.39,2.21 -6.08,3.09 c -2.25,0.54 -4.43,1.35 -6.76,1.44 q -4.3,0.18 -8.13,-0.07 z"
     id="path72" />
  <path
     fill="#1b3441"
     d="m 675.25439,710.6788 c -8.33,-3.83 -14.94,-11.61 -18.09,-19.99 q -0.99,-2.64 -1.21,-4.92 -0.23,-2.46 -0.7,-4.99 -0.98,-5.2 -0.1,-9.66 1.83,-9.28 6.53,-15.51 c 3,-3.98 7.91,-8.96 12.57,-11.29 11.28,-5.65 25.64,-5.29 36.35,1.68 3.21,2.08 5.55,4.84 8.32,7.42 4.46,4.15 7.7,11.46 8.37,16.65 q 0.54,4.1 0.37,9.79 -0.14,4.6 -1.73,8.76 -2.98,7.78 -7.27,12.87 -9.24,10.97 -23.89,12.69 -9.49,1.11 -19.52,-3.5 z m 35.44,-27.86 q 0.88,-3.1 0.64,-8.66 -0.16,-3.76 -1.88,-6.58 c -3.53,-5.82 -9.36,-10.37 -16.22,-10.77 q -5.3,-0.31 -8.6,0.79 -8.54,2.83 -12.51,11.89 c -1.42,3.24 -1.05,7.22 -0.92,10.73 q 0.1,2.99 1.73,5.93 4.32,7.81 12.34,10.81 4.15,1.55 7.89,0.63 c 6.65,-1.64 12.3,-4.63 15.39,-10.27 q 1.79,-3.27 2.14,-4.5 z"
     id="path74" />
  <path
     fill="#1b3441"
     d="m 143.83439,697.7388 a 1.26,1.26 0 0 0 1.26,1.26 l 29.77,0.01 q 0.53,0 0.89,0.39 2.68,2.9 2.87,6.06 c 0.18,3.18 0.16,8.81 -4.58,8.81 q -19.75,0 -40.92,0.02 a 4.68,4.68 0 0 1 -4.68,-4.49 q -0.26,-6.31 0.16,-11.04 c 0.12,-1.37 0.76,-2.51 0.76,-3.96 q 0.02,-24.8 0,-49.47 a 4.61,4.61 0 0 1 4.55,-4.61 q 8.03,-0.11 17.87,0.13 c 2.4,0.06 4.63,0.69 7.11,0.68 q 8.19,-0.05 15.28,0.07 2.03,0.03 3.01,1.86 3.36,6.25 -1.14,11.85 -0.56,0.69 -1.45,0.69 h -28.23 q -1.75,0 -1.76,1.76 l -0.07,10.71 a 1.77,1.77 0 0 0 1.77,1.78 q 12.1,0.01 23.86,0.02 1.54,0 2.48,1.21 3.07,3.96 1.03,9.28 c -0.56,1.46 -1.68,2.8 -3.37,2.79 q -12.18,-0.11 -23.52,0.05 -2.96,0.04 -2.96,2.91 z"
     id="path76" />
  <path
     fill="#1b3441"
     d="m 561.63439,680.1288 -2.07,-5.38 a 0.36,0.36 0 0 1 0.36,-0.49 c 3.88,0.22 10.3,0.82 13.68,-2.5 2.03,-2 2.09,-7.42 0.42,-9.63 -3.03,-4.03 -6.76,-6.32 -11.64,-6.19 q -2.29,0.07 -4.65,0.05 -3.02,-0.02 -3.11,2.99 -0.35,11.39 -0.05,23.23 0.26,9.91 -1.31,14.82 -2.79,8.73 -10.03,13.04 -5.89,3.51 -12.03,4.09 -10.01,0.94 -18.13,-3.93 -2.06,-1.24 -3.95,-3.27 c -1.76,-1.88 -3.74,-3.47 -5.06,-5.74 q -3.72,-6.41 -3.79,-12.6 -0.16,-14.72 -0.1,-31.25 a 1.37,1.38 0 0 0 -1.37,-1.38 h -19.19 a 1.02,1.02 0 0 0 -1.03,1.02 l 0.03,52.71 a 4.57,4.58 0.8 0 1 -4.7,4.58 q -2.13,-0.06 -4.84,0.06 c -3.29,0.14 -5.87,-1.83 -5.86,-5.17 q 0.1,-21.81 0.03,-46.47 -0.01,-2.36 -0.15,-4.41 a 2.53,2.53 0 0 0 -2.52,-2.35 l -17.67,0.01 a 3.12,3.12 0 0 1 -3.11,-2.87 c -0.24,-2.92 -0.96,-9.53 2.23,-11.23 q 2.11,-1.13 4.95,-1.14 22.05,-0.05 45.7,0.12 c 1.53,0.01 3,0.67 4.63,0.68 q 8.56,0.04 15.96,0.15 c 2.4,0.03 3.14,2.92 3.16,4.77 q 0.18,17.88 0.03,37.75 -0.03,4.82 1.5,7.5 c 2.3,4.05 7.64,7.5 12.49,5.74 5,-1.82 8.7,-3.57 8.69,-9.71 q -0.03,-20.15 -0.04,-40.77 c 0,-3.38 1.46,-6.08 5.28,-6.16 q 9.36,-0.2 18.14,-0.02 c 1.44,0.03 2.78,0.82 4.25,0.73 9.43,-0.59 19.17,6.75 22.57,15.54 1.58,4.07 1.04,9.08 0.96,13.43 -0.15,7.46 -6.56,14.16 -12.97,16.59 a 0.76,0.76 0 0 0 -0.36,1.14 q 6.32,9.35 11.94,18.85 c 0.98,1.65 3.52,5.24 1.64,6.91 a 1.06,1.09 24.5 0 1 -0.72,0.28 l -13.13,0.05 q -0.48,0 -0.87,-0.29 -2.09,-1.55 -3.42,-3.69 -7.38,-11.86 -14.72,-24.91 a 1.35,1.36 56.4 0 1 0.36,-1.74 l 3.3,-2.52 q 0.52,-0.4 0.29,-1.02 z"
     id="path78" />
  <path
     fill="#1b3441"
     d="m 639.32439,675.0288 c 7.47,2.88 11.38,11.92 11.52,19.44 q 0.08,4.39 -1.96,7.61 -2.69,4.24 -5.15,6.47 c -2.37,2.14 -7.49,4.51 -11.22,4.8 -2.05,0.16 -3.74,0.89 -5.82,0.9 q -12.97,0.07 -25.25,0.04 a 2.91,2.91 0 0 1 -2.9,-2.9 q -0.07,-33.45 -0.1,-65.96 c -0.01,-3.86 3.43,-4.61 6.9,-4.65 q 7.98,-0.07 16.09,-0.02 c 2.84,0.02 5.88,0.58 8.68,1.05 q 10.56,1.79 14.54,11.24 1.14,2.71 1,5.44 c -0.13,2.5 0.32,5.02 -0.64,7.42 q -2.25,5.65 -5.81,8.31 -0.68,0.51 0.12,0.81 z m -25.45,-16.64 -0.02,8.78 a 2.21,2.21 0 0 0 2.21,2.21 l 7.78,0.01 a 6.67,6.06 0.1 0 0 6.68,-6.05 v -1.08 a 6.67,6.06 0.1 0 0 -6.66,-6.07 l -7.78,-0.01 a 2.21,2.21 0 0 0 -2.21,2.21 z m 0.01,27.46 -0.08,10.92 a 2.28,2.28 0 0 0 2.27,2.29 l 9.83,0.07 a 8.47,7.15 0.4 0 0 8.52,-7.09 v -1.18 a 8.47,7.15 0.4 0 0 -8.42,-7.21 l -9.83,-0.07 a 2.28,2.28 0 0 0 -2.29,2.27 z"
     id="path80" />
  <path
     fill="#1b3441"
     d="m 106.14439,688.3988 q 4.92,7.99 10.52,17.74 c 1.23,2.14 2.36,3.56 2.57,6.14 q 0.16,1.99 -1.83,1.99 l -12.9,0.02 a 1.28,1.26 73.7 0 1 -1.1,-0.61 l -17.74,-28.56 a 0.86,0.85 64.4 0 1 0.43,-1.25 q 2.01,-0.73 3.31,-2.16 a 1.02,1.03 56.1 0 0 0.21,-1.04 l -2.04,-5.57 q -0.42,-1.13 0.72,-0.72 10.7,3.83 15.09,-5.8 c 2.31,-5.05 -3.6,-10.76 -7.78,-12.02 -3.29,-0.99 -6.92,-0.5 -10.35,-0.59 a 2.84,2.83 0.8 0 0 -2.92,2.83 l -0.02,50.87 a 4.61,4.62 0 0 1 -4.61,4.62 l -7.3,-0.01 a 3.48,3.48 0 0 1 -3.48,-3.48 l -0.01,-65.55 q 0,-3.63 3.64,-3.66 14.19,-0.1 27.97,0.04 c 8.27,0.08 16.2,6.95 19.35,13.94 1.63,3.59 3.08,9.38 1.8,13.43 -0.51,1.6 -0.46,3.12 -1.03,4.69 q -3.32,9.29 -11.88,12.8 a 1.31,1.32 62.9 0 0 -0.62,1.91 z"
     id="path82" />
  <path
     fill="#1b3441"
     d="m 300.82439,677.3588 a 1.25,1.24 0.5 0 0 -1.25,1.22 q -0.1,6.79 -0.18,12.91 -0.08,5.65 -3.09,10.83 -2.7,4.63 -8.46,8.4 -4.39,2.87 -11.08,3.54 -14.66,1.46 -23.97,-9.81 c -3.22,-3.91 -4.75,-8.68 -4.71,-13.94 q 0.18,-23.9 0.1,-47.25 a 1.7,1.7 0 0 1 1.7,-1.71 h 10.22 q 3.45,0.01 3.45,3.45 l 0.07,44.82 q 0,0.49 0.25,0.92 0.96,1.58 1.95,3.05 c 2.2,3.26 6.2,3.6 10.05,3.21 4.58,-0.46 7.6,-3.6 8.34,-8.04 0.27,-1.62 0.89,-3.07 0.88,-4.74 q -0.02,-22.04 0,-40.97 a 1.69,1.69 0 0 1 1.68,-1.69 q 4.98,-0.02 9.15,-0.04 1.9,-0.01 3.23,1.83 c 4.11,5.7 7.09,11.55 10.81,17.19 q 5.05,7.63 9.87,15.14 0.79,1.24 1.91,0.3 1.25,-1.05 2.1,-2.38 8.15,-12.73 17.03,-27.94 1.33,-2.28 3.41,-3.8 0.43,-0.32 0.97,-0.32 l 10.03,0.06 a 2.64,2.64 0 0 1 2.48,1.78 c 0.46,1.34 0.87,2.77 0.87,4.2 q 0,28.3 0.04,62.33 a 4.34,4.34 0 0 1 -4.32,4.35 l -7.11,0.03 a 4.67,4.66 89.8 0 1 -4.68,-4.65 l -0.1,-30.9 a 0.43,0.6 27.9 0 0 -0.02,-0.15 q -0.48,-1.38 -1.32,-1.02 -0.48,0.22 -0.82,0.66 c -5.28,7.03 -9.88,13.82 -14.11,21.19 q -0.33,0.58 -1,0.58 l -8.56,-0.01 a 1.19,1.21 75.7 0 1 -1.05,-0.61 q -5.72,-10.28 -13.31,-21.22 -0.55,-0.8 -1.45,-0.8 z"
     id="path84" />
  <path
     fill="#1b3441"
     d="m 384.37439,685.0788 -0.01,12.18 a 1.67,1.66 0.3 0 0 1.65,1.66 q 13.58,0.16 27.33,0.06 c 5.66,-0.05 5.2,8.27 4.6,11.66 -0.33,1.91 -2.35,3.62 -4.34,3.62 q -20.73,-0.01 -41.51,0.05 a 2.58,2.58 0 0 1 -1.85,-0.78 c -1.54,-1.59 -2.11,-3.72 -2.12,-5.94 q -0.05,-32.52 0.07,-61.11 a 4.97,4.98 0.2 0 1 4.97,-4.95 l 40.48,0.02 a 3.5,3.5 0 0 1 3.5,3.49 l 0.03,7.67 a 3.25,3.26 89.8 0 1 -3.26,3.27 l -26.55,0.01 a 2.91,2.91 0 0 0 -2.91,2.91 l 0.01,9.31 a 1.17,1.17 0 0 0 1.14,1.16 q 10.07,0.24 18.91,0.06 c 6.69,-0.13 10.75,2.17 9.41,10.07 -0.38,2.27 -2.16,4.08 -4.49,4.07 q -11.47,-0.08 -23.58,0.02 a 1.49,1.5 89.6 0 0 -1.48,1.49 z"
     id="path86" />
</svg>
